<svg width="16" height="16" viewBox="0 0 16 16" fill="none" xmlns="http://www.w3.org/2000/svg">
<path fill-rule="evenodd" clip-rule="evenodd" d="M8 0C6.41775 0 4.87103 0.469192 3.55544 1.34824C2.23984 2.2273 1.21446 3.47673 0.608964 4.93854C0.00346437 6.40035 -0.154961 8.00888 0.153723 9.56073C0.462408 11.1126 1.22434 12.538 2.34316 13.6569C3.46198 14.7757 4.88745 15.5376 6.4393 15.8463C7.99115 16.155 9.59968 15.9965 11.0615 15.391C12.5233 14.7855 13.7727 13.7601 14.6518 12.4445C15.5308 11.1289 16 9.58222 16 7.99997C15.9988 5.8786 15.1556 3.84445 13.6556 2.34441C12.1555 0.844379 10.1214 0.00115716 8 0ZM8 1.77778C9.23062 1.77779 10.4336 2.14272 11.4568 2.82643C12.48 3.51013 13.2775 4.4819 13.7485 5.61885C14.2194 6.7558 14.3426 8.00687 14.1025 9.21384C13.8624 10.4208 13.2698 11.5295 12.3997 12.3997C11.5295 13.2699 10.4208 13.8625 9.21382 14.1025C8.00684 14.3426 6.75578 14.2194 5.61883 13.7485C4.48188 13.2775 3.51012 12.48 2.82642 11.4568C2.14272 10.4336 1.77779 9.23059 1.77778 7.99997C1.77843 6.34993 2.43419 4.76767 3.60094 3.60092C4.7677 2.43417 6.34997 1.77842 8 1.77778ZM4.64691 8.83698C4.56439 8.75445 4.49894 8.65649 4.45428 8.54867C4.40963 8.44085 4.38665 8.32529 4.38665 8.20859C4.38665 8.09189 4.40964 7.97633 4.45431 7.86852C4.49897 7.7607 4.56443 7.66274 4.64695 7.58022C4.72947 7.4977 4.82744 7.43225 4.93526 7.38759C5.04308 7.34294 5.15864 7.31995 5.27534 7.31996C5.39204 7.31996 5.50759 7.34295 5.61541 7.38761C5.72323 7.43228 5.82119 7.49774 5.90371 7.58026L6.9531 8.62953L10.0963 5.4863C10.1787 5.40328 10.2767 5.33734 10.3847 5.29228C10.4926 5.24721 10.6084 5.2239 10.7254 5.22368C10.8424 5.22346 10.9582 5.24635 11.0663 5.29101C11.1745 5.33568 11.2727 5.40125 11.3554 5.48397C11.4381 5.56668 11.5037 5.66492 11.5484 5.77303C11.593 5.88115 11.6159 5.99702 11.6157 6.114C11.6155 6.23098 11.5922 6.34677 11.5471 6.45472C11.502 6.56268 11.4361 6.66067 11.3531 6.74308L7.58022 10.5135C7.49782 10.5963 7.3999 10.662 7.29206 10.7068C7.18422 10.7516 7.06859 10.7746 6.95182 10.7746C6.83504 10.7746 6.71942 10.7516 6.61158 10.7068C6.50374 10.662 6.40581 10.5963 6.32342 10.5135L4.64691 8.83698Z" fill="#34C759"/>
</svg>
