<svg width="24" height="24" viewBox="0 0 24 24" fill="none" xmlns="http://www.w3.org/2000/svg">
<path d="M22.75 5C22.75 5.41 22.41 5.75 22 5.75L11 5.75C10.59 5.75 10.25 5.41 10.25 5C10.25 4.59 10.59 4.25 11 4.25L22 4.25C22.41 4.25 22.75 4.59 22.75 5Z" fill="#674CC4"/>
<path d="M7.75 5C7.75 5.41 7.41 5.75 7 5.75L2 5.75C1.59 5.75 1.25 5.41 1.25 5C1.25 4.59 1.59 4.25 2 4.25L7 4.25C7.41 4.25 7.75 4.59 7.75 5Z" fill="#674CC4"/>
<path d="M22.75 12C22.75 12.41 22.41 12.75 22 12.75L17 12.75C16.59 12.75 16.25 12.41 16.25 12C16.25 11.59 16.59 11.25 17 11.25L22 11.25C22.41 11.25 22.75 11.59 22.75 12Z" fill="#674CC4"/>
<path d="M13.75 12C13.75 12.41 13.41 12.75 13 12.75L2 12.75C1.59 12.75 1.25 12.41 1.25 12C1.25 11.59 1.59 11.25 2 11.25L13 11.25C13.41 11.25 13.75 11.59 13.75 12Z" fill="#674CC4"/>
<path d="M22.75 19C22.75 19.41 22.41 19.75 22 19.75L11 19.75C10.59 19.75 10.25 19.41 10.25 19C10.25 18.59 10.59 18.25 11 18.25L22 18.25C22.41 18.25 22.75 18.59 22.75 19Z" fill="#674CC4"/>
<path d="M7.75 19C7.75 19.41 7.41 19.75 7 19.75L2 19.75C1.59 19.75 1.25 19.41 1.25 19C1.25 18.59 1.59 18.25 2 18.25L7 18.25C7.41 18.25 7.75 18.59 7.75 19Z" fill="#674CC4"/>
<path d="M11.75 17L11.75 21C11.75 21.41 11.41 21.75 11 21.75C10.59 21.75 10.25 21.41 10.25 21L10.25 17C10.25 16.59 10.59 16.25 11 16.25C11.41 16.25 11.75 16.59 11.75 17Z" fill="#674CC4"/>
<path d="M11.75 3L11.75 7C11.75 7.41 11.41 7.75 11 7.75C10.59 7.75 10.25 7.41 10.25 7L10.25 3C10.25 2.59 10.59 2.25 11 2.25C11.41 2.25 11.75 2.59 11.75 3Z" fill="#674CC4"/>
<path d="M13.75 10L13.75 14C13.75 14.41 13.41 14.75 13 14.75C12.59 14.75 12.25 14.41 12.25 14L12.25 10C12.25 9.59 12.59 9.25 13 9.25C13.41 9.25 13.75 9.59 13.75 10Z" fill="#674CC4"/>
</svg>
